<svg
          width="28"
          height="25"
          viewBox="0 0 28 25"
          fill="none"
          xmlns="http://www.w3.org/2000/svg"
        >
          <path
            opacity="0.5"
            fill-rule="evenodd"
            clip-rule="evenodd"
            d="M21.2187 4.66667H24.6667C26.1373 4.66667 27.3333 5.86267 27.3333 7.33334V22C27.3333 23.4707 26.1373 24.6667 24.6667 24.6667H3.33334C1.86267 24.6667 0.666672 23.4707 0.666672 22V7.33334C0.666672 5.86267 1.86267 4.66667 3.33334 4.66667H6.78134L10.3907 1.05734C10.5143 0.933283 10.6612 0.834899 10.823 0.767852C10.9848 0.700805 11.1582 0.666419 11.3333 0.666672H16.6667C16.8418 0.666419 17.0152 0.700805 17.177 0.767852C17.3388 0.834899 17.4857 0.933283 17.6093 1.05734L21.2187 4.66667ZM3.33334 7.33334V22H24.6693L24.6667 7.33334H20.6667C20.4915 7.33359 20.3181 7.29921 20.1563 7.23216C19.9945 7.16511 19.8476 7.06673 19.724 6.94267L16.1147 3.33334H11.8853L8.276 6.94267C8.02667 7.19334 7.68801 7.33334 7.33334 7.33334H3.33334ZM8.66667 14C8.66667 11.1093 11.1093 8.66667 14 8.66667C16.8907 8.66667 19.3333 11.1093 19.3333 14C19.3333 16.8907 16.8907 19.3333 14 19.3333C11.1093 19.3333 8.66667 16.8907 8.66667 14ZM11.3333 14C11.3333 15.42 12.58 16.6667 14 16.6667C15.42 16.6667 16.6667 15.42 16.6667 14C16.6667 12.58 15.42 11.3333 14 11.3333C12.58 11.3333 11.3333 12.58 11.3333 14Z"
            fill="#2B2E39"
          />
        </svg>